<svg width="52" height="36" viewBox="0 0 52 36" fill="none" xmlns="http://www.w3.org/2000/svg">
<path d="M18.5314 30.9273C18.5314 30.4364 18.2017 30.1091 17.7071 30.1091H3.36341C2.8688 30.1091 2.53906 30.4364 2.53906 30.9273C2.53906 31.4182 2.8688 31.7455 3.36341 31.7455H17.7071C18.2017 31.7455 18.5314 31.3364 18.5314 30.9273Z" fill="white"/>
<path d="M6.66079 34.2H5.01209C4.51748 34.2 4.18774 34.5273 4.18774 35.0182C4.18774 35.5091 4.51748 35.8364 5.01209 35.8364H6.66079C7.1554 35.8364 7.48514 35.5091 7.48514 35.0182C7.48514 34.5273 7.1554 34.2 6.66079 34.2Z" fill="white"/>
<path d="M10.5353 26.8364C10.5353 26.3455 10.2055 26.0182 9.71092 26.0182H1.71473C1.22012 26.0182 0.890381 26.3455 0.890381 26.8364C0.890381 27.3273 1.22012 27.6546 1.71473 27.6546H9.71092C10.2055 27.6546 10.5353 27.2455 10.5353 26.8364Z" fill="white"/>
<path d="M51.5055 28.2273C51.2582 27.7364 50.7636 27.3273 50.269 27.0818L44.004 24.7091L41.4485 23.8091C40.7066 23.4818 40.0471 22.9909 39.6349 22.3364L37.4916 18.8182C37.9038 18.7364 38.1511 18.4091 38.1511 18C38.1511 17.5091 37.8213 17.1818 37.3267 17.1818H36.5024L35.5132 15.5455C35.9253 15.4636 36.1726 15.1364 36.1726 14.7273C36.1726 14.2364 35.8429 13.9091 35.3483 13.9091H34.5239L33.6996 12.6C34.0293 12.5182 34.2766 12.1909 34.2766 11.8636C34.2766 11.3727 33.9469 11.0455 33.4523 11.0455H32.7104L31.6387 9.32729C31.6387 9.32729 31.6387 9.24547 31.5563 9.24547C30.5671 8.10001 29.2481 7.52729 27.8467 7.69092C26.6102 7.85456 25.621 8.59092 25.2088 9.49092C25.1263 9.73638 25.1263 9.98183 25.2912 10.2273L32.1333 21.8455C32.2158 22.0091 32.3806 22.1727 32.5455 22.1727L40.9539 25.3636H41.0363L43.5093 26.2636L49.692 28.6364C49.8568 28.7182 50.0217 28.8 50.1041 29.0455C50.4339 29.7 50.4339 30.3546 50.0217 31.0091H36.5848C35.7605 31.0091 34.9361 30.7637 34.2766 30.2727L11.2773 13.3364C11.2773 13.3364 11.607 13.1727 12.0192 12.6C12.4314 12.0273 12.5962 11.2909 12.5962 10.5546L11.8543 3.68183L12.8435 2.12729C13.0908 1.80001 13.5855 1.7182 13.9152 1.96365C14.1625 2.2091 15.1517 3.02729 17.5423 6.87274C18.7789 8.67274 20.7573 9.98183 22.983 10.3091C23.3952 10.3909 23.8898 10.0637 23.9723 9.65456C24.0547 9.24547 23.725 8.75456 23.3128 8.67274C21.5816 8.34547 19.9329 7.36365 18.9437 5.89092C16.0585 1.47274 15.2342 0.818195 14.9044 0.572741C13.8328 -0.163623 12.3489 0.0818316 11.5246 1.14547L6.49604 9.08183C6.1663 9.57274 6.08387 10.1455 6.1663 10.7182C5.67169 10.8818 5.17709 11.1273 4.92978 11.6182L3.61082 13.6636C2.86891 14.7273 3.19865 16.2 4.2703 16.9364C5.01221 17.5091 6.57848 18.4909 8.88666 19.9636C9.05153 20.0455 9.2164 20.1273 9.29883 20.1273C9.54614 20.1273 9.79344 19.9636 9.95831 19.7182C10.2056 19.3091 10.1232 18.8182 9.71101 18.5727C7.48526 17.1 5.919 16.1182 5.17709 15.5455C4.84735 15.3 4.76491 14.8909 5.01221 14.4818L6.24874 12.6C6.49604 12.2727 6.99065 12.1909 7.32039 12.4364L33.205 31.5818C34.1942 32.3182 35.3483 32.6455 36.5024 32.6455H47.8784C46.1473 33.4637 43.7566 34.2 41.6958 34.2H38.8106H36.4199C35.0185 34.2 33.6171 33.7909 32.4631 33.0546C27.6818 30.0273 18.7789 24.3818 12.2665 20.2091C11.8543 19.9637 11.3597 20.0455 11.1124 20.4546C10.8651 20.8637 10.9475 21.3546 11.3597 21.6C17.7072 25.6909 26.3629 31.1727 31.2265 34.2818H9.95831C9.4637 34.2818 9.13396 34.6091 9.13396 35.1C9.13396 35.5909 9.4637 35.9182 9.95831 35.9182H36.4199H38.8106H41.6133C44.9932 35.9182 49.8568 34.1182 51.0934 32.4C52.165 30.9273 52.2474 29.5364 51.5055 28.2273ZM33.2874 20.8636L26.8575 9.98183C27.1048 9.73638 27.517 9.49092 28.0116 9.4091C28.5062 9.32729 29.413 9.4091 30.2373 10.3091L30.7319 11.1273H29.99C29.4954 11.1273 29.1657 11.4546 29.1657 11.9455C29.1657 12.4364 29.4954 12.7636 29.99 12.7636H31.7211L32.5455 14.0727H31.886C31.3914 14.0727 31.0617 14.4 31.0617 14.8909C31.0617 15.3818 31.3914 15.7091 31.886 15.7091H33.5347L34.5239 17.2636H33.8645C33.3698 17.2636 33.0401 17.5909 33.0401 18.0818C33.0401 18.5727 33.3698 18.9 33.8645 18.9H35.5132L37.8213 22.5L33.2874 20.8636ZM7.89744 9.98183L10.4529 5.97274L10.9475 10.7182C10.9475 11.0455 10.8651 11.3727 10.7002 11.6182C10.5354 11.8637 10.2056 12.5182 9.4637 11.9455C9.4637 11.9455 9.05153 11.7 8.30961 11.1273C7.815 10.7182 7.73257 10.3091 7.89744 9.98183Z" fill="white"/>
</svg>
